<mxfile host="app.diagrams.net" agent="Mozilla/5.0 (Windows NT 10.0; Win64; x64) AppleWebKit/537.36 (KHTML, like Gecko) Chrome/131.0.0.0 Safari/537.36" version="26.0.6">
  <diagram id="k62Qd34TlkDp_MR1KU_M" name="Página-1">
    <mxGraphModel dx="1674" dy="1949" grid="1" gridSize="10" guides="1" tooltips="1" connect="1" arrows="1" fold="1" page="1" pageScale="1" pageWidth="827" pageHeight="1169" math="0" shadow="0">
      <root>
        <mxCell id="0" />
        <mxCell id="1" parent="0" />
        <mxCell id="6VBfth_WhyfYPUwYuWZH-1" value="Factura" style="text;html=1;align=center;verticalAlign=middle;whiteSpace=wrap;rounded=0;" parent="1" vertex="1">
          <mxGeometry x="430" y="-1110" width="60" height="30" as="geometry" />
        </mxCell>
        <mxCell id="6VBfth_WhyfYPUwYuWZH-2" value="" style="rounded=0;whiteSpace=wrap;html=1;" parent="1" vertex="1">
          <mxGeometry x="410" y="-1060" width="120" height="60" as="geometry" />
        </mxCell>
        <mxCell id="6VBfth_WhyfYPUwYuWZH-3" value="Borrador (a validar)" style="text;html=1;align=center;verticalAlign=middle;whiteSpace=wrap;rounded=0;" parent="1" vertex="1">
          <mxGeometry x="440" y="-1045" width="60" height="30" as="geometry" />
        </mxCell>
        <mxCell id="6VBfth_WhyfYPUwYuWZH-4" value="" style="endArrow=classic;html=1;rounded=0;exitX=0.5;exitY=1;exitDx=0;exitDy=0;" parent="1" source="6VBfth_WhyfYPUwYuWZH-2" edge="1">
          <mxGeometry width="50" height="50" relative="1" as="geometry">
            <mxPoint x="670" y="-950" as="sourcePoint" />
            <mxPoint x="470" y="-940" as="targetPoint" />
          </mxGeometry>
        </mxCell>
        <mxCell id="6VBfth_WhyfYPUwYuWZH-5" value="" style="rounded=0;whiteSpace=wrap;html=1;" parent="1" vertex="1">
          <mxGeometry x="410" y="-940" width="120" height="60" as="geometry" />
        </mxCell>
        <mxCell id="6VBfth_WhyfYPUwYuWZH-6" value="Pendiente de pago" style="text;html=1;align=center;verticalAlign=middle;whiteSpace=wrap;rounded=0;" parent="1" vertex="1">
          <mxGeometry x="440" y="-925" width="60" height="30" as="geometry" />
        </mxCell>
        <mxCell id="6VBfth_WhyfYPUwYuWZH-7" value="Validar" style="text;html=1;align=center;verticalAlign=middle;whiteSpace=wrap;rounded=0;" parent="1" vertex="1">
          <mxGeometry x="470" y="-980" width="60" height="30" as="geometry" />
        </mxCell>
        <mxCell id="6VBfth_WhyfYPUwYuWZH-8" value="" style="rounded=0;whiteSpace=wrap;html=1;" parent="1" vertex="1">
          <mxGeometry x="540" y="-840" width="120" height="60" as="geometry" />
        </mxCell>
        <mxCell id="6VBfth_WhyfYPUwYuWZH-9" value="Pagada" style="text;html=1;align=center;verticalAlign=middle;whiteSpace=wrap;rounded=0;" parent="1" vertex="1">
          <mxGeometry x="580" y="-825" width="40" height="30" as="geometry" />
        </mxCell>
        <mxCell id="6VBfth_WhyfYPUwYuWZH-10" value="" style="endArrow=classic;html=1;rounded=0;entryX=0.5;entryY=0;entryDx=0;entryDy=0;" parent="1" target="6VBfth_WhyfYPUwYuWZH-8" edge="1">
          <mxGeometry width="50" height="50" relative="1" as="geometry">
            <mxPoint x="531" y="-910" as="sourcePoint" />
            <mxPoint x="720" y="-900" as="targetPoint" />
            <Array as="points">
              <mxPoint x="600" y="-910" />
            </Array>
          </mxGeometry>
        </mxCell>
        <mxCell id="6VBfth_WhyfYPUwYuWZH-11" value="Añadir pago" style="text;html=1;align=center;verticalAlign=middle;whiteSpace=wrap;rounded=0;" parent="1" vertex="1">
          <mxGeometry x="540" y="-945" width="60" height="30" as="geometry" />
        </mxCell>
        <mxCell id="6VBfth_WhyfYPUwYuWZH-14" value="" style="endArrow=classic;html=1;rounded=0;exitX=0;exitY=0.5;exitDx=0;exitDy=0;entryX=0.567;entryY=1;entryDx=0;entryDy=0;entryPerimeter=0;" parent="1" source="6VBfth_WhyfYPUwYuWZH-8" target="6VBfth_WhyfYPUwYuWZH-5" edge="1">
          <mxGeometry width="50" height="50" relative="1" as="geometry">
            <mxPoint x="470" y="-850" as="sourcePoint" />
            <mxPoint x="520" y="-900" as="targetPoint" />
            <Array as="points">
              <mxPoint x="478" y="-810" />
              <mxPoint x="480" y="-840" />
            </Array>
          </mxGeometry>
        </mxCell>
        <mxCell id="6VBfth_WhyfYPUwYuWZH-15" value="Reabrir" style="text;html=1;align=center;verticalAlign=middle;whiteSpace=wrap;rounded=0;" parent="1" vertex="1">
          <mxGeometry x="420" y="-855" width="60" height="30" as="geometry" />
        </mxCell>
        <mxCell id="6VBfth_WhyfYPUwYuWZH-16" value="" style="rounded=0;whiteSpace=wrap;html=1;" parent="1" vertex="1">
          <mxGeometry x="180" y="-940" width="120" height="60" as="geometry" />
        </mxCell>
        <mxCell id="6VBfth_WhyfYPUwYuWZH-17" value="Cerrada (pendiente de pago)" style="text;html=1;align=center;verticalAlign=middle;whiteSpace=wrap;rounded=0;" parent="1" vertex="1">
          <mxGeometry x="206" y="-925" width="60" height="30" as="geometry" />
        </mxCell>
        <mxCell id="6VBfth_WhyfYPUwYuWZH-18" value="" style="endArrow=classic;html=1;rounded=0;exitX=0;exitY=0.5;exitDx=0;exitDy=0;entryX=1;entryY=0.5;entryDx=0;entryDy=0;" parent="1" source="6VBfth_WhyfYPUwYuWZH-5" target="6VBfth_WhyfYPUwYuWZH-16" edge="1">
          <mxGeometry width="50" height="50" relative="1" as="geometry">
            <mxPoint x="470" y="-850" as="sourcePoint" />
            <mxPoint x="330" y="-910" as="targetPoint" />
          </mxGeometry>
        </mxCell>
        <mxCell id="6VBfth_WhyfYPUwYuWZH-19" value="Clasificar &#39;abandonado&#39;" style="text;html=1;align=center;verticalAlign=middle;whiteSpace=wrap;rounded=0;" parent="1" vertex="1">
          <mxGeometry x="330" y="-945" width="60" height="30" as="geometry" />
        </mxCell>
        <mxCell id="6VBfth_WhyfYPUwYuWZH-21" value="Proyecto" style="text;html=1;align=center;verticalAlign=middle;whiteSpace=wrap;rounded=0;" parent="1" vertex="1">
          <mxGeometry x="400" y="-750" width="60" height="30" as="geometry" />
        </mxCell>
        <mxCell id="6VBfth_WhyfYPUwYuWZH-22" value="" style="rounded=0;whiteSpace=wrap;html=1;" parent="1" vertex="1">
          <mxGeometry x="380" y="-710" width="120" height="60" as="geometry" />
        </mxCell>
        <mxCell id="6VBfth_WhyfYPUwYuWZH-23" value="Borrador" style="text;html=1;align=center;verticalAlign=middle;whiteSpace=wrap;rounded=0;" parent="1" vertex="1">
          <mxGeometry x="410" y="-695" width="60" height="30" as="geometry" />
        </mxCell>
        <mxCell id="6VBfth_WhyfYPUwYuWZH-24" value="Validar" style="text;html=1;align=center;verticalAlign=middle;whiteSpace=wrap;rounded=0;" parent="1" vertex="1">
          <mxGeometry x="440" y="-620" width="60" height="30" as="geometry" />
        </mxCell>
        <mxCell id="6VBfth_WhyfYPUwYuWZH-25" value="" style="endArrow=classic;html=1;rounded=0;exitX=0.5;exitY=1;exitDx=0;exitDy=0;" parent="1" source="6VBfth_WhyfYPUwYuWZH-22" edge="1">
          <mxGeometry width="50" height="50" relative="1" as="geometry">
            <mxPoint x="630" y="-710" as="sourcePoint" />
            <mxPoint x="440" y="-560" as="targetPoint" />
          </mxGeometry>
        </mxCell>
        <mxCell id="6VBfth_WhyfYPUwYuWZH-26" value="" style="rounded=0;whiteSpace=wrap;html=1;" parent="1" vertex="1">
          <mxGeometry x="380" y="-560" width="120" height="60" as="geometry" />
        </mxCell>
        <mxCell id="6VBfth_WhyfYPUwYuWZH-27" value="Activo" style="text;html=1;align=center;verticalAlign=middle;whiteSpace=wrap;rounded=0;" parent="1" vertex="1">
          <mxGeometry x="410" y="-545" width="60" height="30" as="geometry" />
        </mxCell>
        <mxCell id="6VBfth_WhyfYPUwYuWZH-28" value="" style="endArrow=classic;html=1;rounded=0;exitX=1;exitY=0.5;exitDx=0;exitDy=0;entryX=0.575;entryY=-0.017;entryDx=0;entryDy=0;entryPerimeter=0;" parent="1" source="6VBfth_WhyfYPUwYuWZH-26" target="6VBfth_WhyfYPUwYuWZH-29" edge="1">
          <mxGeometry width="50" height="50" relative="1" as="geometry">
            <mxPoint x="630" y="-610" as="sourcePoint" />
            <mxPoint x="610" y="-530" as="targetPoint" />
            <Array as="points">
              <mxPoint x="570" y="-530" />
            </Array>
          </mxGeometry>
        </mxCell>
        <mxCell id="6VBfth_WhyfYPUwYuWZH-29" value="" style="rounded=0;whiteSpace=wrap;html=1;" parent="1" vertex="1">
          <mxGeometry x="500" y="-480" width="120" height="60" as="geometry" />
        </mxCell>
        <mxCell id="6VBfth_WhyfYPUwYuWZH-30" value="Cerrado" style="text;html=1;align=center;verticalAlign=middle;whiteSpace=wrap;rounded=0;" parent="1" vertex="1">
          <mxGeometry x="530" y="-470" width="60" height="30" as="geometry" />
        </mxCell>
        <mxCell id="6VBfth_WhyfYPUwYuWZH-31" value="Cerrar" style="text;html=1;align=center;verticalAlign=middle;whiteSpace=wrap;rounded=0;" parent="1" vertex="1">
          <mxGeometry x="510" y="-560" width="60" height="30" as="geometry" />
        </mxCell>
        <mxCell id="6VBfth_WhyfYPUwYuWZH-32" value="" style="endArrow=classic;html=1;rounded=0;exitX=0.5;exitY=1;exitDx=0;exitDy=0;entryX=0.5;entryY=1;entryDx=0;entryDy=0;" parent="1" source="6VBfth_WhyfYPUwYuWZH-29" target="6VBfth_WhyfYPUwYuWZH-26" edge="1">
          <mxGeometry width="50" height="50" relative="1" as="geometry">
            <mxPoint x="630" y="-410" as="sourcePoint" />
            <mxPoint x="680" y="-460" as="targetPoint" />
            <Array as="points">
              <mxPoint x="560" y="-400" />
              <mxPoint x="440" y="-400" />
              <mxPoint x="440" y="-460" />
            </Array>
          </mxGeometry>
        </mxCell>
        <mxCell id="6VBfth_WhyfYPUwYuWZH-33" value="Reabrir" style="text;html=1;align=center;verticalAlign=middle;whiteSpace=wrap;rounded=0;" parent="1" vertex="1">
          <mxGeometry x="384" y="-460" width="60" height="30" as="geometry" />
        </mxCell>
      </root>
    </mxGraphModel>
  </diagram>
</mxfile>
